# xmcd
#
# Track frame offsets:
#	150
#	12436
#	28837
#	48348
#	58914
#	71407
#	79071
#	92169
#	103305
#	115156
#	125717
#	137013
#	144766
#	152902
#	164428
#	174933
#	184986
#	194207
#	203861
#	214254
#	224718
#
# Disc length: 3143 seconds
#
# Revision: 1
# Processed by: cddbd v1.5.2PL0 Copyright (c) Steve Scherf et al.
# Submitted via: EZCDAudioConverter 7.0.6.1
#
DISCID=490c4515
DTITLE=Freak Scene - Psychedelic Psoul
DYEAR=2010
DGENRE=
TTITLE0=A Million Grains Of Sand
TTITLE1="...When In The Course Of Human Events" (Draft Beer, Not Students) Int
TTITLE1=erpolation: We Shall Overcome
TTITLE2=Rose Of Smiling Faces
TTITLE3=Behind The Mind
TTITLE4=The Subway Ride Thru Inner Space
TTITLE5=Butterfly Dream
TTITLE6=My Rainbow Life
TTITLE7=The Center Of My Soul
TTITLE8=Watered Down Soul
TTITLE9=Red Rose Will Weep
TTITLE10=Mind Bender
TTITLE11=Grok!
TTITLE12=I Dig Your Mind [Demo]
TTITLE13=Scufflin' Around [Demo]
TTITLE14=A Million Grains Of Sand [Demo]
TTITLE15=Here We Are [Demo]
TTITLE16=I Watched The World Go By [Demo]
TTITLE17=It's Too Late Babe [Demo]
TTITLE18=Dr. Seven [Demo]
TTITLE19=My Other World [Demo]
TTITLE20=The Life I Used To Live [Demo]
EXTD=
EXTT0=
EXTT1=
EXTT2=
EXTT3=
EXTT4=
EXTT5=
EXTT6=
EXTT7=
EXTT8=
EXTT9=
EXTT10=
EXTT11=
EXTT12=
EXTT13=
EXTT14=
EXTT15=
EXTT16=
EXTT17=
EXTT18=
EXTT19=
EXTT20=
PLAYORDER=
